<svg xmlns="http://www.w3.org/2000/svg" viewBox="0 0 192 192" width="100%" height="100%">
  <defs>
    <linearGradient id="grad" x1="0%" y1="0%" x2="100%" y2="100%">
      <stop offset="0%" stop-color="#1890ff" />
      <stop offset="50%" stop-color="#096dd9" />
      <stop offset="100%" stop-color="#003a8c" />
    </linearGradient>
    <linearGradient id="gold" x1="0%" y1="0%" x2="100%" y2="100%">
      <stop offset="0%" stop-color="#ffe58f" />
      <stop offset="100%" stop-color="#d48806" />
    </linearGradient>
  </defs>
  <rect width="192" height="192" rx="48" fill="url(#grad)" />
  <!-- Quran Book Symbol -->
  <path d="M96 135 C75 127 45 127 30 138 L30 60 C45 49 75 49 96 60 C117 49 147 49 162 60 L162 138 C147 127 117 127 96 135 Z" fill="#ffffff" opacity="0.95"/>
  <path d="M96 60 L96 146" stroke="url(#gold)" stroke-width="5" stroke-linecap="round"/>
  <!-- Crescent & Star -->
  <path d="M96 26 A15 15 0 1 0 107 43 A13 13 0 1 1 96 26 Z" fill="url(#gold)"/>
</svg>
